<svg xmlns="http://www.w3.org/2000/svg" viewBox="0 0 2437.935 689.96" xmlns:v="https://vecta.io/nano"><path d="M18.3 593.001l269.818-238.333-80.07-80.623-102.591 22.148L0 164.797l40.531-48.871 87.764 87.114 52.765-16.605 16.198-53.214-88.63-86.675 47.926-41.889 133.102 103.527-19.957 101.961 93.225 78.632 119.364-105.6c-9.833-16.23-9.399-28.748-1.371-42.445 10.098-18.971 10.31-37.898-2.283-55.889-31.813-50.068-89.02-70.154-150.449-65.461C349.741 4.322 374.861 3.837 400.348 0c80.725 2.501 159.465 33.142 219.013 88.005 45.074 43.877 68.889 100.352 77.785 164.164l35.933-15.874 28.809 42.652-84.374 74.757-38.393-33.959 20.54-33.85-50.008-39.076c-22.722 5.799-43.18 9.147-61.559-3.338L437.652 354.928l272.44 236.605 1.807 52.314-44.705 45.252-50.246.861-254.382-260.053-257.749 259.797-86.518-96.703z" fill="#ff0202"/><path d="M1481.494 593.589l-104.961-.13-18.521 58.028-46.368-.247 84.43-268.929 65.842.14 84.384 268.787-46.464.257-18.342-57.906zm-13.335-42.612l-39.753-123.27-39.163 123.794 78.916-.524zm-433.857 42.479l-105.017.083-18.374 58.206-46.291-.789 84.328-268.514 65.824.04 84.411 268.744-46.632.161-18.249-57.932zm-13.312-42.62l-39.773-122.863-38.931 123.517 78.704-.654zm904.944 42.661l-104.982.007-18.521 58.038-46.291-.312 84.434-268.734 65.823.008 84.403 268.724-46.533.266-18.333-57.997zm-13.116-42.271l-39.633-122.64-39.218 122.864 78.851-.224zm505.732 86.422c-23.975 19.294-54.973 22.162-84.574 17.993-34.268-4.778-62.514-26.717-67.99-62.931l45.773-7.12c9.103 31.839 45.824 39.756 72.415 25.134 5.273-6.974 7.991-13.406 7.509-20.714-2.476-7.271-8.139-11.926-15.969-14.792l-64.098-18.974c-19.694-8.766-36.639-20.972-38.43-40.561-3.695-22.244 4.877-42.689 22.788-56.275 30.461-19.91 70.294-19.949 103.738-5.389 19.369 10.776 33.971 26.609 36.498 50.066l-45.803 8.099c-4.854-27.365-32.759-31.471-56.579-27.089-7.829 3.021-14.829 8.473-16.214 15.848-1.616 9.777 5.679 15.474 14.539 19.477l64.229 18.758c20.017 8.125 37.432 20.652 40.082 39.1 4.164 22.872-.853 43.737-17.914 59.368z" fill="#ff0808"/><path fill="#ff0202" d="M1666.666 651.292l-45.652.046-.588-225.79-85.495-.084-.489-43.164 218.459-.1-.152 43.243-86.011.122-.072 225.727z"/><path d="M1299.123 608.771l.463 42.581-164.196.165.061-268.955 45.521.01.035 226.049 118.116.15zm882.641 42.521l-45.513.214-.01-201.706 40.058.266.674 27.971c19.45-24.223 44.677-32.588 72.808-28.384l-.314 42.526c-19.22-3.199-34.085-1.688-48.036 9.384-11.573 8.159-17.516 23.559-19.461 39.929l-.207 109.801zm-104.107.126l-46.299-.036-.248-46.403 46.368-.037.179 46.476zm-70.91-373.135l-31.369-.002-82.769-126.639-.748 125.948c-10.909 1.457-20.933 1.477-31.585.213l.022-183.254 31.326-.253 82.226 125.75 1.279-125.513 31.45-.361.169 184.11zm-878.34-.656l-30.598-63.434-42.031-.064-.299 64.242-31.067-.044.029-184.062 84.893.14c28.802 3.456 48.744 22.435 50.43 51.214 3.346 25.342-5.65 50.901-29.55 63.409l33.392 69.16c-12.313.631-23.478.432-35.2-.561zm-18.749-92.366c14.364-6.151 19.428-17.497 19.858-30.511-.174-13.327-5.183-24.335-18.706-30.661l-55.132-.635-.034 62.174 54.014-.367zm243.886-2.556c4.038 53.913-31.983 100.956-84.507 98.881-54.022 3.853-91.017-41.911-88.463-95.92-2.055-51.324 33.016-96.356 84.292-94.598 51.585-3.676 89.942 38.41 88.679 91.636zm-43.769 49.625c15.727-26.767 15.474-58.645 3.52-85.999-13.338-24.419-41.648-31.227-67.007-22.923-23.751 8.671-34.478 36.363-32.708 62.327-2.109 25.666 7.521 51.759 29.647 62.113 23.506 8.66 50.886 6.672 66.548-15.517zm205.42 1.931c-13.455 29.222-39.998 44.753-70.83 43.815l-66.034.714-.028-184.506 73.231.09c25.372 2.579 46.913 13.701 59.632 35.968 17.244 31.878 19.259 69.936 4.029 103.919zm-43.535 7.828c28.43-29.212 28.587-81.867.927-110.448-20.015-11.313-42.031-7.767-62.877-7.241l.161 124.545c21.653.554 41.195 2.56 61.789-6.856zm922.078-3.525l-70.976.343-11.811 38.985-31.995.348 57.276-184.059 44.554.292 57.149 183.226a170.43 170.43 0 0 1-31.599.217l-12.598-39.352zm-8.886-29.734l-26.8-82.979-26.327 83.748 53.127-.77zm-733.68 29.794l-70.738.185-12.072 39.635-31.796-.184 57.284-183.809 44.501-.293 57.434 184.415-31.288-.026-13.326-39.923zm-8.523-29.259l-26.772-83.497-26.606 83.86 53.378-.363zm491.482-24.637c-1.707 30.121 10.625 59.65 38.194 65.865 29.551 6.889 58.317-4.998 66.22-36.363l30.801 9.06c-13.66 45.864-56.207 65.667-101.423 56.827-42.355-7.533-68.411-49.688-66.571-94.35-1.021-44.126 23.602-85.398 65.832-92.905 44.648-9.196 87.665 9.984 102.533 56.412l-31 9.236c-7.889-30.08-33.939-42.569-63.667-36.841-27.192 3.897-41.988 33.273-40.919 63.059zM942.623 214.394l-47.115.516-.071 63.544-31.205.02-.035-184.26 83.33.143c33.288 2.583 53.636 26.844 52.684 59.393 1.347 34.255-21.8 61.164-57.588 60.644zm7.025-29.271c14.678-6.344 19.998-18.588 20.11-32.218-1.309-12.769-6.787-24.032-20.5-28.998l-54.863-.193.018 61.704 55.235-.295zm861.12-90.339l31.803-.341L1785.43 278.3l-44.644.097-57.237-184.049 31.68.092 47.408 149.875 48.131-149.531zm232.257-.7h31.339v185.041h-31.339z" fill="#ff0808"/></svg>