<svg width="153" height="51" viewBox="0 0 153 51" fill="none" xmlns="http://www.w3.org/2000/svg">
<path d="M92.4876 36.1381H74.0318L65.1115 27.2061V25.05L74.0318 16.1179H94.0256V2.25781H68.3925C67.1621 2.25781 66.0343 2.77115 65.1115 3.59249L53.8329 14.8859C53.0126 15.7073 52.5 16.9393 52.5 18.1713V34.0848C52.5 35.3168 53.0126 36.4461 53.8329 37.3702L65.1115 48.6636C65.9317 49.4849 67.1621 49.9983 68.3925 49.9983H96.794L94.3332 37.5755C94.1281 36.7541 93.3079 36.1381 92.4876 36.1381Z" fill="#D80C24"/>
<path d="M139.755 36.1381L130.732 27.1034V25.2554L139.755 16.2206H151.444V2.25781H135.859C134.629 2.25781 133.501 2.77115 132.578 3.59249L118.941 17.35V4.00316C118.941 2.97649 118.121 2.25781 117.198 2.25781H97.9219V16.2206H101.1C103.254 16.2206 104.997 17.966 104.997 20.122V50.1009H118.941V34.9061L132.68 48.6636C133.501 49.4849 134.731 49.9983 135.961 49.9983H152.572V36.1381H139.755Z" fill="#D80C24"/>
<path d="M36.2965 3.59249C35.4762 2.77115 34.2458 2.25781 33.0154 2.25781H0V49.9983H33.0154C34.2458 49.9983 35.3737 49.4849 36.2965 48.6636L47.6776 37.2675C48.4978 36.4461 49.0105 35.2141 49.0105 33.9821V18.1713C49.0105 16.9393 48.4978 15.8099 47.6776 14.8859L36.2965 3.59249ZM35.7838 27.3087L26.966 36.1381H13.9444V16.1179H26.966L35.7838 24.9474V27.3087Z" fill="#D80C24"/>
</svg>
