<?xml version="1.0" encoding="UTF-8"?>
<svg id="Layer_2" data-name="Layer 2" xmlns="http://www.w3.org/2000/svg" viewBox="0 0 728.25573 448.56033">
  <defs>
    <style>
      .cls-1 {
        fill: #e8e8e8;
      }
    </style>
  </defs>
  <g id="Layer_1-2" data-name="Layer 1">
    <g>
      <g>
        <path class="cls-1" d="M.01642,321.73829v36.2342h54.35144v90.58784h36.23337c.00041-30.19595.00069-60.39189.0011-90.58784h36.24549l.00028-.00014,36.23874-36.2375c-54.35681.0011-108.71361.00234-163.07042.00344Z"/>
        <path class="cls-1" d="M217.43318,321.73472h-18.11834c-19.08306,0-35.11796,7.35033-48.1051,22.04604-8.97343,10.15394-14.32537,23.08177-15.15853,36.60715-1.20625,19.58097,4.93467,36.11475,18.42262,49.60132,12.37955,12.38065,27.32655,18.57111,44.84101,18.57111h18.11834c17.51308,0,32.46009-6.19046,44.84211-18.57111,12.37955-12.37955,18.56987-27.32655,18.56987-44.84101s-6.19032-32.46146-18.56987-44.84225c-12.38203-12.37955-27.32903-18.57125-44.84211-18.57125ZM236.6379,404.35307c-5.31451,5.31451-11.71704,7.97196-19.20472,7.97196h-18.11834c-7.48905,0-13.89035-2.65746-19.20499-7.97196-5.31464-5.31451-7.97183-11.7158-7.97183-19.20486,0-7.48795,2.65718-13.89035,7.97183-19.20499s11.71594-7.97183,19.20499-7.97183h18.11834c7.48768,0,13.89021,2.65718,19.20472,7.97183,5.3134,5.31464,7.97196,11.71704,7.97196,19.20499,0,7.48905-2.65856,13.89035-7.97196,19.20486Z"/>
        <path class="cls-1" d="M366.90542,321.73472h-18.1182c-19.08292,0-35.11796,7.35033-48.1051,22.04604-8.97343,10.15394-14.32537,23.08177-15.15853,36.60715-1.20611,19.58097,4.93481,36.11475,18.42262,49.60132,12.37955,12.38065,27.32655,18.57111,44.84101,18.57111h18.1182c17.51336,0,32.46036-6.19046,44.84211-18.57111,12.37982-12.37955,18.57001-27.32655,18.57001-44.84101s-6.19019-32.46146-18.57001-44.84225c-12.38175-12.37955-27.32875-18.57125-44.84211-18.57125ZM386.11041,404.35307c-5.31464,5.31451-11.71704,7.97196-19.20499,7.97196h-18.1182c-7.48919,0-13.89035-2.65746-19.20486-7.97196-5.31464-5.31451-7.97196-11.7158-7.97196-19.20486,0-7.48795,2.65732-13.89035,7.97196-19.20499,5.31451-5.31464,11.71567-7.97183,19.20486-7.97183h18.1182c7.48795,0,13.89035,2.65718,19.20499,7.97183,5.31327,5.31464,7.97183,11.71704,7.97183,19.20499,0,7.48905-2.65856,13.89035-7.97183,19.20486Z"/>
        <path class="cls-1" d="M475.6127,412.32503v-90.59018h-36.2353v126.82548c30.09163-.00413,60.18299-.00839,90.27462-.01252,12.07458-12.07431,24.14944-24.14847,36.22402-36.22278h-90.26333Z"/>
        <path class="cls-1" d="M669.37216,367.02987h-63.41212c-1.26859,0-2.34148-.43791-3.2162-1.31373-.87582-.87444-1.31373-1.94734-1.31373-3.2162,0-1.26749.43791-2.33914,1.31373-3.2162.87472-.87444,1.94761-1.31235,3.2162-1.31235h86.06039l36.2353-36.23668h-122.29569c-11.23289,0-20.83553,3.98605-28.80735,11.95788-7.97183,7.97196-11.95788,17.57446-11.95788,28.80735s3.98605,20.83553,11.95788,28.80735c7.97183,7.97196,17.57446,11.95788,28.80735,11.95788h63.41212c1.26886,0,2.34038.43915,3.2162,1.31373.87444.87582,1.31373,1.94734,1.31373,3.2162,0,1.26873-.43929,2.34162-1.31373,3.2162-.87582.87582-1.94734,1.31373-3.2162,1.31373h-86.05901l-36.2364,36.2353h122.29542c11.23317,0,20.83553-3.98605,28.80735-11.95788,7.9721-7.97183,11.95788-17.57446,11.95788-28.80735s-3.98578-20.83553-11.95788-28.80735c-7.97183-7.97183-17.57419-11.95788-28.80735-11.95788Z"/>
      </g>
      <path class="cls-1" d="M265.70919,98.41192H127.9349c-2.75654,0-5.08759-.95144-6.98778-2.85431-1.90288-1.89989-2.85431-4.23094-2.85431-6.98778,0-2.75385.95144-5.08221,2.85431-6.98778,1.90018-1.89989,4.23124-2.85132,6.98778-2.85132h186.98175L393.64439,0H127.9349c-24.40549,0-45.26865,8.66042-62.58918,25.98065-17.32023,17.32053-25.98065,38.18369-25.98065,62.58918s8.66042,45.26894,25.98065,62.58918c17.32053,17.32053,38.18369,25.98065,62.58918,25.98065h137.7743c2.75684,0,5.0849.95413,6.98778,2.85431,1.90018,1.90288,2.85431,4.23094,2.85431,6.98778,0,2.75654-.95413,5.08759-2.85431,6.98778-1.90288,1.90288-4.23094,2.85431-6.98778,2.85431H78.73043L0,275.55158h265.70919c24.40579,0,45.26894-8.66042,62.58918-25.98065,17.32053-17.32023,25.98065-38.18369,25.98065-62.58918s-8.66012-45.26894-25.98065-62.58918c-17.32023-17.32023-38.18339-25.98065-62.58918-25.98065Z"/>
      <path class="cls-1" d="M597.56223,109.34884h91.3146c-.00209,55.39868-.00389,110.79706-.00598,166.19573h-177.14475c-38.04017,0-70.52002-13.44751-97.41503-40.34252-26.89501-26.89501-40.34282-59.37486-40.34282-97.41503,0-41.66532,16.11763-76.64367,48.37682-104.95956C446.76641,11.41922,478.38901.00496,510.89338.00496h217.34045l-78.72565,78.72565h-137.78207c-16.26444,0-30.1772,5.78069-41.71436,17.31754-11.53716,11.56137-17.31754,25.44992-17.31754,41.73888,0,16.26444,5.78039,30.1775,17.31754,41.71436,11.53716,11.53686,25.44992,17.31754,41.71436,17.31754h88.59704c.17133,0,.34266,0,.51429-.02452h9.30806v-28.71626h-71.31258c19.57654-19.57654,39.15277-39.15277,58.72931-58.72931Z"/>
    </g>
  </g>
</svg>